<?xml version="1.0" standalone="no"?><!DOCTYPE svg PUBLIC "-//W3C//DTD SVG 1.1//EN" "http://www.w3.org/Graphics/SVG/1.1/DTD/svg11.dtd"><svg t="1582791256084" class="icon" viewBox="0 0 1024 1024" version="1.1" xmlns="http://www.w3.org/2000/svg" p-id="3165" xmlns:xlink="http://www.w3.org/1999/xlink" width="200" height="200"><defs><style type="text/css"></style></defs><path d="M510.464 577.194667c-182.613333 0-325.802667-93.013333-325.802667-211.797334S327.850667 153.6 510.464 153.6 836.266667 246.613333 836.266667 365.397333s-143.018667 211.797333-325.802667 211.797334z m0-355.328c-139.605333 0-257.536 65.706667-257.536 143.530666s117.930667 143.530667 257.536 143.530667S768 443.221333 768 365.397333 650.069333 221.866667 510.464 221.866667z" p-id="3166" fill="#fc8c98"></path><path d="M510.464 756.906667c-182.613333 0-325.802667-88.234667-325.802667-201.045334 0-29.525333 9.728-57.685333 28.672-83.968A34.0992 34.0992 0 0 1 268.458667 512c-10.410667 14.336-15.701333 29.013333-15.701334 43.861333 0 62.805333 105.813333 132.778667 257.536 132.778667S768 618.666667 768 555.861333c0-13.482667-4.266667-26.794667-12.8-39.936-10.410667-15.701333-5.973333-36.864 9.898667-47.274666 15.701333-10.410667 36.864-5.973333 47.274666 9.898666 15.872 24.405333 23.893333 50.517333 23.893334 77.312 0 112.810667-143.018667 201.045333-325.802667 201.045334z" p-id="3167" fill="#fc8c98"></path><path d="M510.464 938.666667c-182.613333 0-325.802667-88.234667-325.802667-201.045334 0-29.525333 9.728-57.685333 28.672-83.968a34.0992 34.0992 0 0 1 55.125334 40.106667c-10.410667 14.336-15.701333 29.013333-15.701334 43.861333 0 62.805333 105.813333 132.778667 257.536 132.778667S768 800.426667 768 737.621333c0-13.482667-4.266667-26.794667-12.8-39.936-10.410667-15.701333-5.973333-36.864 9.898667-47.274666 15.701333-10.410667 36.864-5.973333 47.274666 9.898666 16.042667 24.405333 24.064 50.346667 24.064 77.312C836.266667 850.432 693.248 938.666667 510.464 938.666667z" p-id="3168" fill="#fc8c98"></path></svg>