<?xml version="1.0" standalone="no"?><!DOCTYPE svg PUBLIC "-//W3C//DTD SVG 1.1//EN" "http://www.w3.org/Graphics/SVG/1.1/DTD/svg11.dtd"><svg t="1582791292057" class="icon" viewBox="0 0 1024 1024" version="1.1" xmlns="http://www.w3.org/2000/svg" p-id="1853" xmlns:xlink="http://www.w3.org/1999/xlink" width="200" height="200"><defs><style type="text/css"></style></defs><path d="M615.8 885.5h-332c-11.5 0-20.8 9.3-20.8 20.8s9.3 20.8 20.8 20.8h332c11.5 0 20.8-9.3 20.8-20.8-0.1-11.5-9.4-20.8-20.8-20.8zM740.3 885.5h-41.5c-11.5 0-20.8 9.3-20.8 20.8s9.3 20.8 20.8 20.8h41.5c11.5 0 20.8-9.3 20.8-20.8-0.1-11.5-9.4-20.8-20.8-20.8zM864.8 242.2c-34.4 0-62.3 27.9-62.3 62.3 0 21.4 10.8 40.3 27.3 51.5L657.3 506.4l-128-287.6c25.9-7.5 45-31.2 45-59.5 0-34.4-27.9-62.3-62.3-62.3s-62.3 27.9-62.3 62.3c0 28.4 19.1 52 45 59.5l-128 287.6L194.2 356c16.4-11.2 27.3-30.1 27.3-51.5 0-34.4-27.9-62.3-62.3-62.3S97 270.1 97 304.5s27.9 62.3 62.3 62.3c3 0 5.9-0.5 8.8-0.9l80.7 371.3c8.3 38.2 42.1 65.4 81.1 65.4h364.2c39 0 72.8-27.2 81.1-65.4L856 365.9c2.9 0.4 5.8 0.9 8.8 0.9 34.4 0 62.3-27.9 62.3-62.3-0.1-34.4-28-62.3-62.3-62.3z m-726.3 62.3c0-11.4 9.3-20.8 20.8-20.8s20.8 9.3 20.8 20.8-9.3 20.8-20.8 20.8-20.8-9.4-20.8-20.8z m352.8-145.2c0-11.4 9.3-20.8 20.8-20.8 11.4 0 20.8 9.3 20.8 20.8S523.4 180 512 180c-11.4 0-20.7-9.3-20.7-20.7z m243.4 569c-4.1 18.9-21.2 32.7-40.6 32.7H329.9c-19.4 0-36.4-13.7-40.6-32.7l-62.9-289.2 113 98.6c7.6 6.7 17.3 10.2 27.3 10.2 3 0 6-0.3 9-1 12.9-2.8 23.6-11.6 29-23.7L512 282.1l107.3 241.2c5.4 12 16.1 20.8 29 23.7 3 0.7 6 1 9 1 9.9 0 19.6-3.6 27.3-10.2l113-98.6-62.9 289.1z m130.1-403.1c-11.4 0-20.8-9.3-20.8-20.8s9.3-20.8 20.8-20.8 20.8 9.3 20.8 20.8-9.4 20.8-20.8 20.8z" p-id="1854" fill="#fc8c98"></path></svg>