<?xml version="1.0" standalone="no"?><!DOCTYPE svg PUBLIC "-//W3C//DTD SVG 1.1//EN" "http://www.w3.org/Graphics/SVG/1.1/DTD/svg11.dtd"><svg t="1582791349718" class="icon" viewBox="0 0 1024 1024" version="1.1" xmlns="http://www.w3.org/2000/svg" p-id="3730" xmlns:xlink="http://www.w3.org/1999/xlink" width="200" height="200"><defs><style type="text/css"></style></defs><path d="M832 832a32 32 0 0 0 32-29.76L832 224a32 32 0 0 0-32-32H224a32 32 0 0 0-32 32L160 800a32 32 0 0 0 32 32z m0 64H192a96 96 0 0 1-96-96L128 224a96 96 0 0 1 96-96h576a96 96 0 0 1 96 93.76L928 800a96 96 0 0 1-96 96z" p-id="3731" fill="#fc8c98"></path><path d="M640 320a32 32 0 0 1 64 0 192 192 0 0 1-384 0 32 32 0 0 1 64 0 128 128 0 0 0 256 0z" p-id="3732" fill="#fc8c98"></path></svg>